# xmcd
#
# Track frame offsets:
#	150
#	11760
#	32543
#	47693
#	54558
#	69866
#	86436
#	106942
#	120731
#	140216
#	163113
#	188516
#	212683
#	231423
#
# Disc length: 3833 seconds
#
# Revision: 4
# Processed by: cddbd v1.5.2PL0 Copyright (c) Steve Scherf et al.
# Submitted via: EZCDAudioConverter 6.0.9.1
#
DISCID=bb0ef70e
DTITLE=Leonard Bernstein and NYP - CD57_Ravel Daphnis et Chloé, La Valse NYP
DYEAR=1961
DGENRE=Orchestral
TTITLE0=Ravel: Daphnis et Chloé - Introduction. Lent
TTITLE1=Ravel: Daphnis et Chloé - Danse religieuse. Modéré
TTITLE2=Ravel: Daphnis et Chloé - Les Jeunes Filles. Vif - Danse générale
TTITLE3=Ravel: Daphnis et Chloé - Danse grotesque de Dorcon. Très modéré
TTITLE4=Ravel: Daphnis et Chloé - Danse légère et gracieuse de Daphnis. Assez 
TTITLE4=lent
TTITLE5=Ravel: Daphnis et Chloé - Lyceion entre. Très libre - Lyceion dance. T
TTITLE5=rès modéré
TTITLE6=Ravel: Daphnis et Chloé - [Nocturne] Modéré
TTITLE7=Ravel: Daphnis et Chloé - [Interlude] Même mouvt.
TTITLE8=Ravel: Daphnis et Chloé - [Danse guerrièr] Animé et très rude
TTITLE9=Ravel: Daphnis et Chloé - Danse suppliante de Chloé. Modéré
TTITLE10=Ravel: Daphnis et Chloé - [Lever du jour] Lent
TTITLE11=Ravel: Daphnis et Chloé - [Pantomine] Chloé fiture la jeune nymphe. L
TTITLE11=ent
TTITLE12=Ravel: Daphnis et Chloé - Devant l'autel des nymphes - Danse générale
TTITLE13=Ravel: La Valse
EXTD=
EXTT0=
EXTT1=
EXTT2=
EXTT3=
EXTT4=
EXTT5=
EXTT6=
EXTT7=
EXTT8=
EXTT9=
EXTT10=
EXTT11=
EXTT12=
EXTT13=
PLAYORDER=
